<svg width="46" height="40" viewBox="0 0 46 40" fill="none" xmlns="http://www.w3.org/2000/svg">
<path d="M42.1318 18.2069C42.9191 17.4396 43.197 16.3134 42.8574 15.2666C42.517 14.2197 41.6304 13.4724 40.541 13.3138L30.8558 11.9065C30.4433 11.8465 30.0869 11.5878 29.9027 11.2137L25.5727 2.43759C25.0865 1.4516 24.0997 0.838867 23 0.838867C21.9011 0.838867 20.9143 1.4516 20.4281 2.43759L16.0973 11.2137C15.9131 11.5878 15.5559 11.8465 15.1434 11.9065L5.45815 13.3146C4.36965 13.4724 3.48298 14.2197 3.14257 15.2666C2.80297 16.3134 3.0809 17.4396 3.86824 18.2069L10.8759 25.0375C11.1746 25.3291 11.3116 25.7488 11.2411 26.1589L9.58711 35.8048C9.40128 36.8885 9.83781 37.9626 10.7277 38.6098C11.6167 39.2578 12.7741 39.3419 13.7489 38.8285L22.4105 34.2742C22.7797 34.0804 23.2203 34.0804 23.5895 34.2742L32.2519 38.8285C32.6748 39.0511 33.133 39.1609 33.5887 39.1609C34.1806 39.1609 34.7701 38.9758 35.2731 38.6098C36.163 37.9626 36.5995 36.8885 36.4137 35.8048L34.7589 26.1597C34.6884 25.7488 34.8254 25.3299 35.1241 25.0383L42.1318 18.2069ZM33.181 26.4304L34.835 36.0756C34.9183 36.5609 34.7301 37.0247 34.3312 37.3146C33.9315 37.6038 33.4341 37.639 32.9976 37.4116L24.3352 32.8565C23.9179 32.6378 23.4582 32.5273 23 32.5273C22.5419 32.5273 22.0829 32.6378 21.6648 32.8573L13.004 37.4116C12.5659 37.639 12.0685 37.6038 11.6696 37.3146C11.2707 37.0247 11.0833 36.5617 11.1658 36.0756L12.8198 26.4304C12.9792 25.4997 12.6708 24.5497 11.9948 23.8913L4.98639 17.0599C4.63316 16.7155 4.51302 16.2301 4.666 15.7616C4.81818 15.2922 5.20024 14.9702 5.68803 14.8989L15.3724 13.4917C16.3072 13.3563 17.1153 12.77 17.5326 11.9226L21.8634 3.14644C22.0813 2.70431 22.5066 2.44079 22.9992 2.44079C23.4926 2.44079 23.9171 2.70431 24.1358 3.14644L28.4666 11.9226C28.8839 12.77 29.6912 13.3563 30.626 13.4917L40.3112 14.8989C40.799 14.9702 41.181 15.2922 41.3332 15.7616C41.4854 16.2301 41.366 16.7155 41.0128 17.0599L34.0052 23.8905C33.3292 24.5497 33.0208 25.4989 33.181 26.4304Z" fill="white"/>
<path d="M6.05181 27.3154L2.01036 29.6487C1.45235 29.9709 0.776142 29.8443 0.5 29.366C0.223858 28.8877 0.452355 28.2388 1.01036 27.9167L5.05181 25.5833C5.60982 25.2612 6.28603 25.3877 6.56218 25.866C6.83832 26.3443 6.60982 26.9932 6.05181 27.3154Z" fill="white"/>
<path d="M35.2718 7.6987L38.3573 4.19762C38.7833 3.71422 38.7928 3.02633 38.3785 2.66117C37.9641 2.29602 37.2829 2.39187 36.8569 2.87527L33.7714 6.37635C33.3454 6.85975 33.3359 7.54764 33.7502 7.9128C34.1646 8.27796 34.8458 8.1821 35.2718 7.6987Z" fill="white"/>
<path d="M39.5436 28.9863L43.5851 31.3196C44.1431 31.6418 44.8193 31.5152 45.0954 31.0369C45.3716 30.5586 45.1431 29.9097 44.5851 29.5876L40.5436 27.2542C39.9856 26.9321 39.3094 27.0586 39.0333 27.5369C38.7571 28.0152 38.9856 28.6641 39.5436 28.9863Z" fill="white"/>
<path d="M10.8569 7.6987L7.77137 4.19762C7.34536 3.71422 7.33589 3.02633 7.75023 2.66117C8.16458 2.29602 8.84582 2.39187 9.27184 2.87527L12.3573 6.37635C12.7833 6.85975 12.7928 7.54764 12.3785 7.9128C11.9641 8.27796 11.2829 8.1821 10.8569 7.6987Z" fill="white"/>
</svg>
