<svg width="41" height="42" viewBox="0 0 41 42" fill="none" xmlns="http://www.w3.org/2000/svg">
<path d="M19.0086 7.80963e-06C13.8663 -0.00443069 8.90203 1.8832 5.06182 5.30321C4.6719 5.6496 4.59534 6.2297 4.88205 6.66539C5.16876 7.10108 5.73182 7.26028 6.20422 7.03921C8.23964 6.08554 10.4609 5.59406 12.7086 5.60001C19.0165 5.60208 24.6853 9.45069 27.0149 15.3126C29.3444 21.1746 27.8637 27.8645 23.2779 32.1957C18.6921 36.527 11.9286 37.6237 6.20912 34.9636C5.73582 34.7407 5.17065 34.9003 4.88376 35.3377C4.59686 35.7752 4.67578 36.3571 5.06882 36.7024C8.90529 40.1233 13.8685 42.0095 19.0086 42C19.2515 42 19.4986 41.9958 19.7401 41.9867C30.4998 41.5446 39.2089 33.0875 39.9666 22.3454C40.3586 16.5454 38.3103 10.8452 34.3162 6.62131C30.3406 2.40416 24.8043 0.00944996 19.0086 7.80963e-06ZM38.5694 22.26C38.1149 29.3254 33.8854 35.5964 27.505 38.6651C21.1246 41.7337 13.5852 41.1229 7.78202 37.0671C9.49094 37.5895 11.272 37.8369 13.0586 37.8C19.6089 37.6519 25.4755 33.7093 28.0869 27.7002C30.6983 21.6911 29.578 14.7122 25.217 9.82234C20.8561 4.93251 14.0503 3.0241 7.78272 4.93361C13.9572 0.618662 22.0583 0.224095 28.6229 3.91858C35.1875 7.61306 39.0539 14.7428 38.5694 22.26Z" fill="white"/>
<path d="M-0.989694 20.3647C-1.28119 20.7388 -1.28119 21.2632 -0.989694 21.6373C-0.0838944 22.8203 4.72861 28.7003 10.6086 28.7003C16.4886 28.7003 21.3011 22.8203 22.2069 21.6359C22.4982 21.2622 22.4982 20.7384 22.2069 20.3647C21.3011 19.1838 16.4886 13.3003 10.6086 13.3003C4.72861 13.3003 -0.0838944 19.1838 -0.989694 20.3647ZM20.564 21.4413C19.0492 23.2403 15.1292 27.3003 10.6086 27.3003C6.08801 27.3003 2.16731 23.2403 0.653206 21.4413C1.95407 20.0866 3.55437 19.0557 5.32571 18.4313C4.51141 20.75 5.30401 23.3287 7.28008 24.7897C9.25614 26.2507 11.9539 26.2527 13.9321 24.7946C15.9103 23.3364 16.7066 20.7589 15.8957 18.439C17.6621 19.0671 19.2597 20.0946 20.564 21.4413ZM6.40861 20.3003C6.40576 19.4262 6.6846 18.5745 7.2038 17.8713C9.44767 17.3752 11.773 17.3767 14.0162 17.8755C14.5335 18.5779 14.8113 19.428 14.8086 20.3003C14.8086 22.6199 12.9282 24.5003 10.6086 24.5003C8.28901 24.5003 6.40861 22.6199 6.40861 20.3003ZM10.6086 14.7003C13.2602 14.7003 15.7025 16.1003 17.5792 17.6221C15.3992 16.5984 13.0169 16.0783 10.6086 16.1003C8.20034 16.0783 5.81799 16.5984 3.63801 17.6221C5.51471 16.1003 7.95701 14.7003 10.6086 14.7003Z" fill="white"/>
<path d="M11.3086 11.2002V8.40019C11.3086 8.0136 10.9952 7.7002 10.6086 7.7002C10.222 7.7002 9.90863 8.0136 9.90863 8.40019V11.2002C9.90863 11.5868 10.222 11.9002 10.6086 11.9002C10.9952 11.9002 11.3086 11.5868 11.3086 11.2002Z" fill="white"/>
<path d="M6.40861 12.6001C6.63362 12.6002 6.84494 12.4921 6.97655 12.3096C7.10816 12.1271 7.14402 11.8924 7.07291 11.6789L6.37291 9.57894C6.25075 9.21167 5.85398 9.01297 5.48671 9.13514C5.11944 9.2573 4.92075 9.65407 5.04291 10.0213L5.74291 12.1213C5.83832 12.4078 6.10667 12.6008 6.40861 12.6001Z" fill="white"/>
<path d="M2.00353 12.1052C1.72886 11.8399 1.29227 11.8437 1.02226 12.1137C0.752242 12.3837 0.748448 12.8203 1.01373 13.095L2.41373 14.495C2.58948 14.677 2.84974 14.7499 3.09448 14.6859C3.33922 14.6218 3.53036 14.4307 3.59442 14.1859C3.65848 13.9412 3.5855 13.6809 3.40353 13.5052L2.00353 12.1052Z" fill="white"/>
<path d="M-1.08628 17.2946C-0.910529 17.4766 -0.650266 17.5496 -0.405526 17.4855C-0.160785 17.4215 0.0303466 17.2303 0.0944073 16.9856C0.158468 16.7408 0.085489 16.4806 -0.0964807 16.3048L-0.796481 15.6048C-0.972233 15.4229 -1.2325 15.3499 -1.47724 15.4139C-1.72198 15.478 -1.91311 15.6691 -1.97717 15.9139C-2.04123 16.1586 -1.96825 16.4189 -1.78628 16.5946L-1.08628 17.2946Z" fill="white"/>
<path d="M14.8086 12.6001C15.1101 12.6002 15.3777 12.4073 15.4729 12.1213L16.1729 10.0213C16.2951 9.65407 16.0964 9.2573 15.7291 9.13514C15.3619 9.01297 14.9651 9.21167 14.8429 9.57894L14.1429 11.6789C14.0717 11.8927 14.1078 12.1276 14.2397 12.3101C14.3716 12.4927 14.5834 12.6006 14.8086 12.6001Z" fill="white"/>
<path d="M18.8035 14.495L20.2035 13.095C20.4688 12.8203 20.465 12.3837 20.195 12.1137C19.925 11.8437 19.4884 11.8399 19.2137 12.1052L17.8137 13.5052C17.6318 13.6809 17.5588 13.9412 17.6228 14.1859C17.6869 14.4307 17.878 14.6218 18.1228 14.6859C18.3675 14.7499 18.6278 14.677 18.8035 14.495Z" fill="white"/>
<path d="M23.0035 15.6049C22.7302 15.3316 22.2871 15.3316 22.0137 15.6049L21.3137 16.3049C21.1318 16.4806 21.0588 16.7409 21.1228 16.9856C21.1869 17.2304 21.378 17.4215 21.6228 17.4855C21.8675 17.5496 22.1278 17.4766 22.3035 17.2947L23.0035 16.5947C23.2768 16.3213 23.2768 15.8782 23.0035 15.6049Z" fill="white"/>
<path d="M9.90863 30.8001V33.6001C9.90863 33.9867 10.222 34.3001 10.6086 34.3001C10.9952 34.3001 11.3086 33.9867 11.3086 33.6001V30.8001C11.3086 30.4135 10.9952 30.1001 10.6086 30.1001C10.222 30.1001 9.90863 30.4135 9.90863 30.8001Z" fill="white"/>
<path d="M5.74432 29.8791L5.04431 31.9791C4.92215 32.3463 5.12085 32.7431 5.48812 32.8653C5.85539 32.9874 6.25215 32.7887 6.37432 32.4215L7.07432 30.3215C7.15334 30.0839 7.09962 29.8222 6.93338 29.6349C6.76714 29.4477 6.51365 29.3634 6.26838 29.4137C6.02311 29.4641 5.82334 29.6415 5.74432 29.8791Z" fill="white"/>
<path d="M2.41374 27.5051L1.01374 28.9051C0.831768 29.0808 0.758789 29.3411 0.822849 29.5858C0.88691 29.8306 1.07804 30.0217 1.32278 30.0858C1.56752 30.1498 1.82779 30.0769 2.00354 29.8949L3.40354 28.4949C3.66882 28.2202 3.66502 27.7836 3.39501 27.5136C3.125 27.2436 2.6884 27.2398 2.41374 27.5051Z" fill="white"/>
<path d="M-1.08628 24.7053L-1.78628 25.4053C-1.96825 25.581 -2.04123 25.8413 -1.97717 26.086C-1.91311 26.3308 -1.72198 26.5219 -1.47724 26.586C-1.2325 26.65 -0.972233 26.5771 -0.796481 26.3951L-0.0964807 25.6951C0.1688 25.4204 0.165006 24.9838 -0.105008 24.7138C-0.375021 24.4438 -0.811615 24.44 -1.08628 24.7053Z" fill="white"/>
<path d="M14.5874 29.4363C14.2208 29.5584 14.0225 29.9544 14.1443 30.3211L14.8443 32.4211C14.9665 32.7884 15.3632 32.9871 15.7305 32.8649C16.0978 32.7427 16.2965 32.346 16.1743 31.9787L15.4743 29.8787C15.4156 29.7023 15.289 29.5565 15.1226 29.4735C14.9563 29.3905 14.7637 29.3771 14.5874 29.4363Z" fill="white"/>
<path d="M18.8035 27.5051C18.5289 27.2398 18.0923 27.2436 17.8222 27.5136C17.5522 27.7836 17.5484 28.2202 17.8137 28.4949L19.2137 29.8949C19.4884 30.1602 19.925 30.1564 20.195 29.8864C20.465 29.6164 20.4688 29.1798 20.2035 28.9051L18.8035 27.5051Z" fill="white"/>
<path d="M22.3035 24.7053C22.0288 24.44 21.5923 24.4438 21.3222 24.7138C21.0522 24.9838 21.0484 25.4204 21.3137 25.6951L22.0137 26.3951C22.2884 26.6604 22.725 26.6566 22.995 26.3866C23.265 26.1165 23.2688 25.6799 23.0035 25.4053L22.3035 24.7053Z" fill="white"/>
<path d="M10.6086 23.0999C11.7684 23.0999 12.7086 22.1597 12.7086 20.9999C12.7086 19.8401 11.7684 18.8999 10.6086 18.8999C9.44881 18.8999 8.50861 19.8401 8.50861 20.9999C8.50861 22.1597 9.44881 23.0999 10.6086 23.0999ZM10.6086 20.2999C10.9952 20.2999 11.3086 20.6133 11.3086 20.9999C11.3086 21.3865 10.9952 21.6999 10.6086 21.6999C10.222 21.6999 9.90861 21.3865 9.90861 20.9999C9.90861 20.6133 10.222 20.2999 10.6086 20.2999Z" fill="white"/>
</svg>
