<svg width="43" height="43" viewBox="0 0 43 43" fill="none" xmlns="http://www.w3.org/2000/svg">
<path d="M21.1709 11.2154C18.8725 10.9342 17.5722 10.6742 17.5722 8.75529C17.5722 7.06134 19.6246 6.29519 21.0866 6.29519C23.7435 6.29519 24.6502 7.77828 24.6924 7.8556C24.818 8.07533 25.0512 8.21138 25.3043 8.2125C25.5573 8.21363 25.7918 8.07966 25.9193 7.86106C26.0468 7.64246 26.048 7.37244 25.9224 7.15271C25.8732 7.06837 24.7908 5.17057 21.7895 4.91051V3.48365C21.7895 3.09545 21.4748 2.78076 21.0866 2.78076C20.6984 2.78076 20.3837 3.09545 20.3837 3.48365V4.93159C18.2258 5.17057 16.1664 6.492 16.1664 8.75529C16.1664 12.0097 18.9779 12.3611 21.0022 12.6141C23.3007 12.9023 24.601 13.1624 24.601 15.0813C24.601 18.5324 18.4578 17.6468 17.3683 16.6909C17.0927 16.4153 16.6458 16.4153 16.3702 16.6909C16.0946 16.9665 16.0946 17.4134 16.3702 17.689C16.4897 17.8085 17.5722 18.7855 20.3837 18.9471V20.3529C20.3837 20.7411 20.6984 21.0558 21.0866 21.0558C21.4748 21.0558 21.7895 20.7411 21.7895 20.3529V18.9471C24.8822 18.7011 26.0068 16.8385 26.0068 15.1094C26.0068 11.8269 23.1952 11.4755 21.1709 11.2154Z" fill="white"/>
<path d="M21.7894 41.4395V33.7078C21.7894 33.3196 21.4747 33.0049 21.0866 33.0049C20.6984 33.0049 20.3837 33.3196 20.3837 33.7078V41.4395C20.3837 41.8277 20.6984 42.1424 21.0866 42.1424C21.4747 42.1424 21.7894 41.8277 21.7894 41.4395Z" fill="white"/>
<path d="M25.3039 37.9251V28.0847C25.3039 27.6965 24.9892 27.3818 24.601 27.3818C24.2128 27.3818 23.8981 27.6965 23.8981 28.0847V37.9251C23.8981 38.3133 24.2128 38.628 24.601 38.628C24.9892 38.628 25.3039 38.3133 25.3039 37.9251Z" fill="white"/>
<path d="M18.275 37.9249V31.5989C18.275 31.2107 17.9603 30.896 17.5721 30.896C17.184 30.896 16.8693 31.2107 16.8693 31.5989V37.9249C16.8693 38.313 17.184 38.6277 17.5721 38.6277C17.9603 38.6277 18.275 38.313 18.275 37.9249Z" fill="white"/>
<path d="M31.9391 6.94886C29.9876 2.71322 25.7502 0 21.0866 0C16.423 0 12.1855 2.71322 10.234 6.94886C1.78533 9.8096 0 14.2659 0 17.5413V39.3308C0 40.8836 1.25877 42.1423 2.81154 42.1423C4.36432 42.1423 5.62309 40.8836 5.62309 39.3308V37.2221H6.32597C7.25806 37.2221 8.15197 36.8519 8.81105 36.1928C9.47013 35.5337 9.8404 34.6398 9.8404 33.7077V32.3019H10.5433C12.4843 32.3019 14.0577 30.7285 14.0577 28.7875C14.0577 26.2501 13.889 23.8041 14.7606 22.0539C18.616 24.4723 23.515 24.4723 27.3704 22.0539C28.256 23.79 28.0733 26.1025 28.0733 28.7875C28.0733 30.7285 29.6467 32.3019 31.5877 32.3019H32.2906V33.7077C32.2906 35.6487 33.864 37.2221 35.805 37.2221H36.5079V39.3308C36.5079 40.8836 37.7667 42.1423 39.3194 42.1423C40.8722 42.1423 42.131 40.8836 42.131 39.3308V17.5413C42.1731 14.2659 40.3878 9.8096 31.9391 6.94886ZM12.6519 28.7875C12.6519 29.9521 11.7079 30.8962 10.5433 30.8962H9.8404V19.65C9.8404 19.2618 9.52571 18.9471 9.13752 18.9471C8.74932 18.9471 8.43463 19.2618 8.43463 19.65V33.7077C8.43463 34.8723 7.49055 35.8164 6.32597 35.8164H5.62309V23.1644C5.62309 22.7762 5.30839 22.4615 4.9202 22.4615C4.53201 22.4615 4.21731 22.7762 4.21731 23.1644V39.3308C4.21731 40.1072 3.58793 40.7366 2.81154 40.7366C2.03516 40.7366 1.40577 40.1072 1.40577 39.3308V17.5413C1.40577 13.7106 4.16108 10.7304 9.60142 8.67093C8.27969 13.2877 9.86598 18.2462 13.6219 21.2385C12.4411 23.3823 12.6519 26.1868 12.6519 28.7875ZM10.5433 11.9183C10.5433 6.09536 15.2637 1.37497 21.0866 1.37497C26.9095 1.37497 31.6299 6.09536 31.6299 11.9183C31.6299 17.7412 26.9095 22.4615 21.0866 22.4615C18.2903 22.4615 15.6086 21.3507 13.6313 19.3735C11.6541 17.3962 10.5433 14.7145 10.5433 11.9183ZM40.7674 39.3308C40.7674 40.1072 40.138 40.7366 39.3616 40.7366C38.5852 40.7366 37.9558 40.1072 37.9558 39.3308V23.1644C37.9558 22.7762 37.6411 22.4615 37.2529 22.4615C36.8648 22.4615 36.5501 22.7762 36.5501 23.1644V35.8164H35.8472C34.6826 35.8164 33.7385 34.8723 33.7385 33.7077V19.65C33.7385 19.2618 33.4238 18.9471 33.0356 18.9471C32.6474 18.9471 32.3327 19.2618 32.3327 19.65V30.8962H31.6299C30.4653 30.8962 29.5212 29.9521 29.5212 28.7875C29.5212 26.2009 29.7321 23.3683 28.5512 21.2385C32.3088 18.2473 33.8954 13.2877 32.5717 8.67093C38.0121 10.7304 40.7674 13.7106 40.7674 17.5413V39.3308Z" fill="white"/>
</svg>
