<svg width="58" height="58" viewBox="0 0 58 58" fill="none" xmlns="http://www.w3.org/2000/svg">
<g clip-path="url(#clip0_33_176)">
<path d="M39.0282 7.79477V2.45048C39.0282 1.6494 38.3788 1 37.5777 1H33.2263C32.4252 1 31.7758 1.6494 31.7758 2.45048V3.30191L25.3074 4.48115C24.5682 4.61524 23.8889 4.97531 23.363 5.51171L18.6315 10.3657C18.2088 10.7907 17.9807 11.3716 18.0013 11.9707C18.0219 12.5697 18.2894 13.1336 18.7403 13.5285C19.1275 13.87 19.6267 14.0571 20.1429 14.0543C20.6005 14.0531 21.0471 13.9146 21.4252 13.6569L26.0885 10.5006L26.0979 10.5253C26.6042 11.7877 27.9179 12.5305 29.2607 12.3137L31.3 11.9794C31.5941 11.9305 31.8949 11.9411 32.1848 12.0106L33.2865 12.2898C34.2292 12.5109 35.2168 12.4414 36.1192 12.0904C37.8824 11.396 39.0379 9.68972 39.0282 7.79477V7.79477ZM37.5777 7.79477C37.5838 9.09361 36.7922 10.2631 35.584 10.74C34.9605 10.9783 34.2803 11.0263 33.6295 10.8778L32.5329 10.6C32.0521 10.4828 31.5525 10.4643 31.0643 10.5456L29.0242 10.8799C28.3729 10.9849 27.7328 10.6371 27.4664 10.0336L30.268 9.23582C31.0307 9.01363 31.7256 8.60398 32.2893 8.04425C32.4776 7.86203 32.5531 7.59233 32.4865 7.33881C32.42 7.0853 32.2218 6.88742 31.9682 6.82123C31.7146 6.75503 31.445 6.83083 31.263 7.01949C30.8737 7.40647 30.3934 7.68951 29.8662 7.84263L26.2915 8.85797C25.971 8.93572 25.6639 9.06113 25.3806 9.23002L20.6122 12.4588C20.3405 12.6598 19.9681 12.6548 19.702 12.4465C19.5451 12.3109 19.4525 12.1156 19.4467 11.9083C19.4406 11.7156 19.5149 11.529 19.652 11.3934L19.6621 11.3825L24.3957 6.52342C24.7123 6.1999 25.1216 5.98271 25.567 5.90189L32.0354 4.72628C32.724 4.601 33.225 4.00183 33.2263 3.30191V2.45048H37.5777V7.79477Z" fill="white"/>
<path d="M50.2596 40.0282L55.6039 40.0282C56.4049 40.0282 57.0543 39.3788 57.0543 38.5777L57.0543 34.2263C57.0543 33.4252 56.4049 32.7758 55.6039 32.7758L54.7524 32.7758L53.5732 26.3074C53.4391 25.5682 53.079 24.8889 52.5426 24.363L47.6886 19.6315C47.2636 19.2088 46.6827 18.9807 46.0837 19.0013C45.4846 19.0219 44.9207 19.2894 44.5258 19.7403C44.1844 20.1275 43.9972 20.6267 44 21.1429C44.0013 21.6005 44.1397 22.0471 44.3975 22.4252L47.5537 27.0885L47.529 27.0979C46.2666 27.6042 45.5238 28.9179 45.7406 30.2607L46.0749 32.3C46.1238 32.5941 46.1132 32.8949 46.0438 33.1848L45.7645 34.2865C45.5434 35.2292 45.613 36.2168 45.964 37.1192C46.6584 38.8824 48.3646 40.0379 50.2596 40.0282V40.0282ZM50.2596 38.5777C48.9607 38.5838 47.7913 37.7922 47.3144 36.584C47.076 35.9605 47.0281 35.2803 47.1766 34.6295L47.4543 33.5329C47.5715 33.0521 47.59 32.5525 47.5087 32.0643L47.1744 30.0242C47.0694 29.3729 47.4172 28.7328 48.0208 28.4664L48.8185 31.268C49.0407 32.0307 49.4504 32.7256 50.0101 33.2893C50.1923 33.4776 50.462 33.5531 50.7155 33.4865C50.969 33.42 51.1669 33.2218 51.2331 32.9682C51.2993 32.7146 51.2235 32.445 51.0349 32.263C50.6479 31.8737 50.3648 31.3934 50.2117 30.8662L49.1964 27.2915C49.1186 26.971 48.9932 26.6639 48.8243 26.3806L45.5956 21.6122C45.3945 21.3405 45.3996 20.9681 45.6079 20.702C45.7435 20.5451 45.9388 20.4525 46.146 20.4467C46.3387 20.4406 46.5253 20.5149 46.6609 20.652L46.6718 20.6621L51.5309 25.3957C51.8544 25.7123 52.0716 26.1216 52.1525 26.567L53.3281 33.0354C53.4533 33.724 54.0525 34.225 54.7524 34.2263L55.6039 34.2263L55.6039 38.5777L50.2596 38.5777Z" fill="white"/>
<path d="M20.0001 51.2594L20.0001 56.6037C20.0001 57.4048 20.6495 58.0542 21.4505 58.0542L25.802 58.0542C26.6031 58.0542 27.2525 57.4048 27.2525 56.6037L27.2525 55.7523L33.7209 54.573C34.46 54.439 35.1393 54.0789 35.6652 53.5425L40.3967 48.6885C40.8194 48.2635 41.0476 47.6826 41.027 47.0835C41.0063 46.4845 40.7389 45.9206 40.2879 45.5257C39.9007 45.1842 39.4015 44.9971 38.8853 44.9999C38.4278 45.0011 37.9811 45.1396 37.6031 45.3973L32.9398 48.5536L32.9304 48.5289C32.424 47.2665 31.1103 46.5237 29.7676 46.7405L27.7282 47.0748C27.4342 47.1237 27.1333 47.1131 26.8434 47.0436L25.7418 46.7644C24.799 46.5433 23.8115 46.6128 22.909 46.9638C21.1458 47.6582 19.9904 49.3645 20.0001 51.2594V51.2594ZM21.4505 51.2594C21.4444 49.9606 22.2361 48.7911 23.4442 48.3142C24.0677 48.0759 24.748 48.0279 25.3987 48.1764L26.4953 48.4542C26.9761 48.5714 27.4757 48.5899 27.9639 48.5086L30.004 48.1743C30.6553 48.0693 31.2955 48.4171 31.5618 49.0206L28.7602 49.8184C27.9976 50.0406 27.3027 50.4502 26.739 51.0099C26.5506 51.1922 26.4752 51.4619 26.5417 51.7154C26.6083 51.9689 26.8064 52.1668 27.06 52.233C27.3137 52.2992 27.5832 52.2234 27.7652 52.0347C28.1546 51.6477 28.6348 51.3647 29.162 51.2116L32.7367 50.1962C33.0572 50.1185 33.3643 49.9931 33.6476 49.8242L38.4161 46.5954C38.6877 46.3944 39.0601 46.3994 39.3262 46.6077C39.4831 46.7433 39.5758 46.9386 39.5815 47.1459C39.5877 47.3386 39.5133 47.5252 39.3763 47.6608L39.3661 47.6717L34.6325 52.5308C34.3159 52.8543 33.9066 53.0715 33.4612 53.1523L26.9928 54.3279C26.3042 54.4532 25.8033 55.0524 25.802 55.7523L25.802 56.6037L21.4505 56.6037L21.4505 51.2594Z" fill="white"/>
<path d="M6.79477 20.0001L1.45048 20.0001C0.649401 20.0001 -8.90785e-07 20.6495 -8.55768e-07 21.4506L-6.65561e-07 25.8021C-6.30545e-07 26.6031 0.649401 27.2525 1.45048 27.2525L2.30191 27.2525L3.48115 33.7209C3.61524 34.4601 3.97531 35.1394 4.51171 35.6653L9.36574 40.3968C9.7907 40.8195 10.3716 41.0476 10.9707 41.027C11.5697 41.0064 12.1336 40.7389 12.5285 40.288C12.87 39.9008 13.0571 39.4016 13.0543 38.8854C13.0531 38.4278 12.9146 37.9812 12.6569 37.6032L9.50064 32.9399L9.52529 32.9304C10.7877 32.4241 11.5305 31.1104 11.3137 29.7677L10.9794 27.7283C10.9305 27.4342 10.9411 27.1334 11.0106 26.8435L11.2898 25.7419C11.5109 24.7991 11.4414 23.8115 11.0904 22.9091C10.396 21.1459 8.68972 19.9905 6.79477 20.0001V20.0001ZM6.79477 21.4506C8.09361 21.4445 9.26307 22.2362 9.73996 23.4443C9.97832 24.0678 10.0263 24.748 9.87776 25.3988L9.59999 26.4954C9.4828 26.9762 9.4643 27.4758 9.5456 27.964L9.87994 30.0041C9.98492 30.6554 9.63714 31.2955 9.03358 31.5619L8.23582 28.7603C8.01363 27.9976 7.60398 27.3028 7.04425 26.7391C6.86203 26.5507 6.59233 26.4753 6.33881 26.5418C6.0853 26.6084 5.88742 26.8065 5.82123 27.0601C5.75503 27.3137 5.83083 27.5833 6.01949 27.7653C6.40647 28.1546 6.68951 28.6349 6.84263 29.1621L7.85797 32.7368C7.93572 33.0573 8.06113 33.3644 8.23002 33.6477L11.4588 38.4161C11.6598 38.6878 11.6548 39.0602 11.4465 39.3263C11.3109 39.4832 11.1156 39.5759 10.9083 39.5816C10.7156 39.5878 10.529 39.5134 10.3934 39.3764L10.3825 39.3662L5.52342 34.6326C5.19989 34.316 4.98271 33.9067 4.90189 33.4613L3.72628 26.9929C3.60099 26.3043 3.00183 25.8034 2.30191 25.8021L1.45048 25.8021L1.45048 21.4506L6.79477 21.4506Z" fill="white"/>
<mask id="path-5-outside-1_33_176" maskUnits="userSpaceOnUse" x="13.3324" y="14.332" width="30" height="30" fill="black">
<rect fill="white" x="13.3324" y="14.332" width="30" height="30"/>
<path d="M42.0602 24.5574C39.9424 19.0002 34.6117 15.329 28.6646 15.3321C27.342 15.3296 26.0254 15.5119 24.7531 15.8735L24.734 15.8793C21.2028 16.8777 18.1928 19.1996 16.3307 22.3616C16.2977 22.4172 16.2764 22.479 16.2679 22.5432C16.0391 22.8486 15.8492 23.1813 15.7025 23.5336L15.6665 23.6112C13.6049 28.0519 13.9498 33.2373 16.5816 37.3658C19.2134 41.4942 23.7687 43.9957 28.6646 44.001C31.956 44.0039 35.1471 42.8686 37.6971 40.7877C37.9037 40.8054 38.0978 40.6868 38.1762 40.4949C38.1912 40.4506 38.1998 40.4045 38.2016 40.3579C42.6425 36.4024 44.178 30.1146 42.0602 24.5574ZM24.6837 16.8947C25.3172 17.6717 26.2507 18.1433 27.2521 18.1923C27.5259 18.1994 27.7998 18.1874 28.0719 18.1563C28.5121 18.0566 28.9732 18.1114 29.3777 18.3116C29.6041 18.4327 29.7291 18.6838 29.6892 18.9374C29.5852 19.1285 29.4425 19.2957 29.2704 19.4286C28.8421 19.7191 28.5841 20.2016 28.5804 20.719C28.6128 21.0412 28.7852 21.3327 29.0519 21.5163C29.4461 21.7797 29.932 21.8677 30.3936 21.7593C30.6493 21.6923 30.8984 21.6021 31.1377 21.4899C31.3553 21.3829 31.5855 21.3039 31.8229 21.2547C32.4296 21.1694 33.0525 21.5704 33.6884 22.0266C34.007 22.2571 34.5259 22.6926 34.4186 23.0233C34.3362 23.2767 34.0267 23.4598 33.6999 23.6543C33.5676 23.7324 33.4382 23.8091 33.2887 23.9131C32.7594 24.3138 32.1793 24.6427 31.5637 24.8911C31.331 24.9685 31.0941 25.0325 30.854 25.0828C30.3541 25.1702 29.8738 25.3455 29.4352 25.6008C28.5549 26.1691 28.6623 27.0786 28.7298 27.6253C28.714 27.62 28.6968 27.6138 28.6781 27.6056C28.5961 27.5721 28.5156 27.5337 28.4356 27.4963C27.9401 27.1621 27.2983 27.1364 26.7776 27.43C26.257 27.7236 25.9468 28.2861 25.9765 28.8831C25.9765 30.0202 26.8208 30.6834 27.4993 31.2157L27.735 31.4026C27.8848 31.5402 28.0196 31.6932 28.137 31.8592C27.1739 31.6168 26.2101 31.3783 25.2457 31.1438C24.435 30.9479 23.6165 30.7063 23.2811 30.1064C23.1529 29.8346 23.0664 29.5449 23.0247 29.2473C22.964 28.7749 22.7979 28.3224 22.5388 27.9228C22.047 27.3739 21.3843 27.0072 20.6581 26.8821L20.5704 26.8571C19.8516 26.6434 19.4577 26.3861 19.3293 26.0493C19.2492 25.6121 19.3206 25.1606 19.5315 24.7694C19.8024 24.2059 19.8928 23.5725 19.7903 22.9557C19.6827 22.4827 19.3666 22.0839 18.9306 21.8713C18.6716 21.7507 18.3888 21.6899 18.1031 21.6935C18.0422 21.6935 17.9804 21.6964 17.9181 21.7012C19.6013 19.4168 21.9725 17.7321 24.6837 16.8947ZM26.6512 42.8871L26.6555 42.8914C26.4675 42.7871 26.2851 42.6729 26.1092 42.5493C25.7219 42.308 25.4571 41.9117 25.3823 41.4615C25.409 41.1725 25.5025 40.8936 25.6554 40.6469C25.7625 40.4188 25.8417 40.1786 25.8912 39.9315C25.9216 39.7072 26.0036 39.493 26.1308 39.3057C26.2725 39.1765 26.4367 39.0745 26.6152 39.0047C26.8152 38.9162 27.0053 38.807 27.1825 38.6789C27.5649 38.3744 27.882 37.9959 28.115 37.5663C28.2276 37.3688 28.3249 37.1537 28.4188 36.9434C28.5463 36.6098 28.724 36.2978 28.9459 36.0181C29.4251 35.5135 30.3691 35.8882 30.7515 36.0712C31.4811 36.3989 32.1519 36.8442 32.7372 37.3894L32.7923 37.446C33.4123 38.1013 34.0721 38.718 34.7679 39.2922C35.3435 39.7369 35.9742 40.1053 36.6444 40.3881C33.7812 42.5233 30.1823 43.4232 26.6512 42.8871ZM37.4911 39.7063C36.7311 39.4251 36.0165 39.0343 35.3698 38.5462C34.7046 37.9957 34.0737 37.4053 33.4804 36.778L33.4253 36.722C32.7646 36.096 32.0032 35.5857 31.1731 35.2126C29.9608 34.6309 28.898 34.6855 28.2555 35.363C27.9559 35.7177 27.7173 36.1199 27.5496 36.5528C27.4639 36.7416 27.3805 36.928 27.288 37.0909C27.1176 37.4095 26.8854 37.691 26.6052 37.919C26.4792 38.0067 26.3449 38.0816 26.2041 38.1427C25.9122 38.2626 25.6471 38.4394 25.4245 38.6631C25.1818 38.9662 25.0221 39.3271 24.9611 39.7106C24.9278 39.882 24.8755 40.0491 24.8054 40.209C24.5771 40.5901 24.4464 41.0216 24.425 41.4653C24.432 41.8134 24.5337 42.153 24.7191 42.4476C21.0283 41.3034 18.0115 38.6211 16.4435 35.0896C14.8755 31.558 14.9089 27.5213 16.5352 24.0162L16.5717 23.9371C16.7017 23.5936 16.8959 23.278 17.1438 23.007C17.2319 22.9192 17.3358 22.8486 17.45 22.7991C17.6567 22.7066 17.8801 22.6577 18.1065 22.6554C18.2465 22.6521 18.3854 22.6799 18.5134 22.7368C18.6943 22.8281 18.8227 22.9979 18.8612 23.1968C18.9032 23.6256 18.8234 24.0574 18.6308 24.4427C18.3249 25.0457 18.2544 25.7409 18.4329 26.393C18.7544 27.233 19.6505 27.5857 20.3017 27.7792L20.3975 27.8061C20.9153 27.8891 21.395 28.1295 21.7713 28.4946C21.9413 28.7833 22.0493 29.1043 22.0881 29.4372C22.147 29.8334 22.2683 30.2179 22.4475 30.5762C22.9707 31.5139 24.0522 31.8431 25.024 32.0779C26.0667 32.3312 27.1103 32.5897 28.1549 32.8532C28.365 32.9217 28.5917 32.9188 28.7999 32.8451C29.0428 32.7507 29.2167 32.5338 29.2561 32.2763C29.3654 31.5503 28.3624 30.6773 28.3457 30.6648L28.0936 30.4645C27.499 29.9978 26.9374 29.5569 26.9374 28.8832C26.9317 28.6002 27.0948 28.3409 27.3523 28.2234C27.5311 28.1491 27.6806 28.2033 28.0289 28.3672C28.1248 28.4122 28.2206 28.4572 28.3083 28.4927C28.6806 28.6924 29.1385 28.6347 29.4497 28.349C29.6521 28.123 29.7375 27.8156 29.6806 27.5176C29.6021 26.8789 29.6327 26.6148 29.9547 26.4064C30.3024 26.2153 30.6799 26.0842 31.0712 26.0187C31.3469 25.9597 31.6189 25.8847 31.8858 25.794C32.5927 25.5119 33.2586 25.1364 33.8658 24.6775C33.9617 24.6099 34.0723 24.5457 34.1835 24.4801C34.6964 24.2502 35.1045 23.8364 35.3273 23.3204C35.553 22.6276 35.1893 21.9308 34.2453 21.2499C33.6392 20.8153 32.7201 20.1583 31.6822 20.3074C31.3602 20.3665 31.0476 20.469 30.7531 20.6121C30.5654 20.7006 30.3705 20.7728 30.1704 20.8277C29.9783 20.8721 29.7765 20.8403 29.6074 20.7391C29.5369 20.6882 29.5331 20.6485 29.5317 20.6337C29.5211 20.5091 29.6754 20.3553 29.915 20.1343C30.2102 19.9024 30.4426 19.6003 30.5912 19.2555C30.7883 18.5778 30.4973 17.8531 29.8863 17.4999C29.306 17.1807 28.632 17.0754 27.982 17.2023C27.754 17.2291 27.5245 17.24 27.2949 17.2349C26.7221 17.2038 26.1754 16.9849 25.7395 16.612C31.7039 15.2684 37.8197 18.1421 40.5925 23.591C43.365 29.04 42.0881 35.6756 37.4911 39.7063Z"/>
</mask>
<path d="M42.0602 24.5574C39.9424 19.0002 34.6117 15.329 28.6646 15.3321C27.342 15.3296 26.0254 15.5119 24.7531 15.8735L24.734 15.8793C21.2028 16.8777 18.1928 19.1996 16.3307 22.3616C16.2977 22.4172 16.2764 22.479 16.2679 22.5432C16.0391 22.8486 15.8492 23.1813 15.7025 23.5336L15.6665 23.6112C13.6049 28.0519 13.9498 33.2373 16.5816 37.3658C19.2134 41.4942 23.7687 43.9957 28.6646 44.001C31.956 44.0039 35.1471 42.8686 37.6971 40.7877C37.9037 40.8054 38.0978 40.6868 38.1762 40.4949C38.1912 40.4506 38.1998 40.4045 38.2016 40.3579C42.6425 36.4024 44.178 30.1146 42.0602 24.5574ZM24.6837 16.8947C25.3172 17.6717 26.2507 18.1433 27.2521 18.1923C27.5259 18.1994 27.7998 18.1874 28.0719 18.1563C28.5121 18.0566 28.9732 18.1114 29.3777 18.3116C29.6041 18.4327 29.7291 18.6838 29.6892 18.9374C29.5852 19.1285 29.4425 19.2957 29.2704 19.4286C28.8421 19.7191 28.5841 20.2016 28.5804 20.719C28.6128 21.0412 28.7852 21.3327 29.0519 21.5163C29.4461 21.7797 29.932 21.8677 30.3936 21.7593C30.6493 21.6923 30.8984 21.6021 31.1377 21.4899C31.3553 21.3829 31.5855 21.3039 31.8229 21.2547C32.4296 21.1694 33.0525 21.5704 33.6884 22.0266C34.007 22.2571 34.5259 22.6926 34.4186 23.0233C34.3362 23.2767 34.0267 23.4598 33.6999 23.6543C33.5676 23.7324 33.4382 23.8091 33.2887 23.9131C32.7594 24.3138 32.1793 24.6427 31.5637 24.8911C31.331 24.9685 31.0941 25.0325 30.854 25.0828C30.3541 25.1702 29.8738 25.3455 29.4352 25.6008C28.5549 26.1691 28.6623 27.0786 28.7298 27.6253C28.714 27.62 28.6968 27.6138 28.6781 27.6056C28.5961 27.5721 28.5156 27.5337 28.4356 27.4963C27.9401 27.1621 27.2983 27.1364 26.7776 27.43C26.257 27.7236 25.9468 28.2861 25.9765 28.8831C25.9765 30.0202 26.8208 30.6834 27.4993 31.2157L27.735 31.4026C27.8848 31.5402 28.0196 31.6932 28.137 31.8592C27.1739 31.6168 26.2101 31.3783 25.2457 31.1438C24.435 30.9479 23.6165 30.7063 23.2811 30.1064C23.1529 29.8346 23.0664 29.5449 23.0247 29.2473C22.964 28.7749 22.7979 28.3224 22.5388 27.9228C22.047 27.3739 21.3843 27.0072 20.6581 26.8821L20.5704 26.8571C19.8516 26.6434 19.4577 26.3861 19.3293 26.0493C19.2492 25.6121 19.3206 25.1606 19.5315 24.7694C19.8024 24.2059 19.8928 23.5725 19.7903 22.9557C19.6827 22.4827 19.3666 22.0839 18.9306 21.8713C18.6716 21.7507 18.3888 21.6899 18.1031 21.6935C18.0422 21.6935 17.9804 21.6964 17.9181 21.7012C19.6013 19.4168 21.9725 17.7321 24.6837 16.8947ZM26.6512 42.8871L26.6555 42.8914C26.4675 42.7871 26.2851 42.6729 26.1092 42.5493C25.7219 42.308 25.4571 41.9117 25.3823 41.4615C25.409 41.1725 25.5025 40.8936 25.6554 40.6469C25.7625 40.4188 25.8417 40.1786 25.8912 39.9315C25.9216 39.7072 26.0036 39.493 26.1308 39.3057C26.2725 39.1765 26.4367 39.0745 26.6152 39.0047C26.8152 38.9162 27.0053 38.807 27.1825 38.6789C27.5649 38.3744 27.882 37.9959 28.115 37.5663C28.2276 37.3688 28.3249 37.1537 28.4188 36.9434C28.5463 36.6098 28.724 36.2978 28.9459 36.0181C29.4251 35.5135 30.3691 35.8882 30.7515 36.0712C31.4811 36.3989 32.1519 36.8442 32.7372 37.3894L32.7923 37.446C33.4123 38.1013 34.0721 38.718 34.7679 39.2922C35.3435 39.7369 35.9742 40.1053 36.6444 40.3881C33.7812 42.5233 30.1823 43.4232 26.6512 42.8871ZM37.4911 39.7063C36.7311 39.4251 36.0165 39.0343 35.3698 38.5462C34.7046 37.9957 34.0737 37.4053 33.4804 36.778L33.4253 36.722C32.7646 36.096 32.0032 35.5857 31.1731 35.2126C29.9608 34.6309 28.898 34.6855 28.2555 35.363C27.9559 35.7177 27.7173 36.1199 27.5496 36.5528C27.4639 36.7416 27.3805 36.928 27.288 37.0909C27.1176 37.4095 26.8854 37.691 26.6052 37.919C26.4792 38.0067 26.3449 38.0816 26.2041 38.1427C25.9122 38.2626 25.6471 38.4394 25.4245 38.6631C25.1818 38.9662 25.0221 39.3271 24.9611 39.7106C24.9278 39.882 24.8755 40.0491 24.8054 40.209C24.5771 40.5901 24.4464 41.0216 24.425 41.4653C24.432 41.8134 24.5337 42.153 24.7191 42.4476C21.0283 41.3034 18.0115 38.6211 16.4435 35.0896C14.8755 31.558 14.9089 27.5213 16.5352 24.0162L16.5717 23.9371C16.7017 23.5936 16.8959 23.278 17.1438 23.007C17.2319 22.9192 17.3358 22.8486 17.45 22.7991C17.6567 22.7066 17.8801 22.6577 18.1065 22.6554C18.2465 22.6521 18.3854 22.6799 18.5134 22.7368C18.6943 22.8281 18.8227 22.9979 18.8612 23.1968C18.9032 23.6256 18.8234 24.0574 18.6308 24.4427C18.3249 25.0457 18.2544 25.7409 18.4329 26.393C18.7544 27.233 19.6505 27.5857 20.3017 27.7792L20.3975 27.8061C20.9153 27.8891 21.395 28.1295 21.7713 28.4946C21.9413 28.7833 22.0493 29.1043 22.0881 29.4372C22.147 29.8334 22.2683 30.2179 22.4475 30.5762C22.9707 31.5139 24.0522 31.8431 25.024 32.0779C26.0667 32.3312 27.1103 32.5897 28.1549 32.8532C28.365 32.9217 28.5917 32.9188 28.7999 32.8451C29.0428 32.7507 29.2167 32.5338 29.2561 32.2763C29.3654 31.5503 28.3624 30.6773 28.3457 30.6648L28.0936 30.4645C27.499 29.9978 26.9374 29.5569 26.9374 28.8832C26.9317 28.6002 27.0948 28.3409 27.3523 28.2234C27.5311 28.1491 27.6806 28.2033 28.0289 28.3672C28.1248 28.4122 28.2206 28.4572 28.3083 28.4927C28.6806 28.6924 29.1385 28.6347 29.4497 28.349C29.6521 28.123 29.7375 27.8156 29.6806 27.5176C29.6021 26.8789 29.6327 26.6148 29.9547 26.4064C30.3024 26.2153 30.6799 26.0842 31.0712 26.0187C31.3469 25.9597 31.6189 25.8847 31.8858 25.794C32.5927 25.5119 33.2586 25.1364 33.8658 24.6775C33.9617 24.6099 34.0723 24.5457 34.1835 24.4801C34.6964 24.2502 35.1045 23.8364 35.3273 23.3204C35.553 22.6276 35.1893 21.9308 34.2453 21.2499C33.6392 20.8153 32.7201 20.1583 31.6822 20.3074C31.3602 20.3665 31.0476 20.469 30.7531 20.6121C30.5654 20.7006 30.3705 20.7728 30.1704 20.8277C29.9783 20.8721 29.7765 20.8403 29.6074 20.7391C29.5369 20.6882 29.5331 20.6485 29.5317 20.6337C29.5211 20.5091 29.6754 20.3553 29.915 20.1343C30.2102 19.9024 30.4426 19.6003 30.5912 19.2555C30.7883 18.5778 30.4973 17.8531 29.8863 17.4999C29.306 17.1807 28.632 17.0754 27.982 17.2023C27.754 17.2291 27.5245 17.24 27.2949 17.2349C26.7221 17.2038 26.1754 16.9849 25.7395 16.612C31.7039 15.2684 37.8197 18.1421 40.5925 23.591C43.365 29.04 42.0881 35.6756 37.4911 39.7063Z" fill="white"/>
<path d="M42.0602 24.5574C39.9424 19.0002 34.6117 15.329 28.6646 15.3321C27.342 15.3296 26.0254 15.5119 24.7531 15.8735L24.734 15.8793C21.2028 16.8777 18.1928 19.1996 16.3307 22.3616C16.2977 22.4172 16.2764 22.479 16.2679 22.5432C16.0391 22.8486 15.8492 23.1813 15.7025 23.5336L15.6665 23.6112C13.6049 28.0519 13.9498 33.2373 16.5816 37.3658C19.2134 41.4942 23.7687 43.9957 28.6646 44.001C31.956 44.0039 35.1471 42.8686 37.6971 40.7877C37.9037 40.8054 38.0978 40.6868 38.1762 40.4949C38.1912 40.4506 38.1998 40.4045 38.2016 40.3579C42.6425 36.4024 44.178 30.1146 42.0602 24.5574ZM24.6837 16.8947C25.3172 17.6717 26.2507 18.1433 27.2521 18.1923C27.5259 18.1994 27.7998 18.1874 28.0719 18.1563C28.5121 18.0566 28.9732 18.1114 29.3777 18.3116C29.6041 18.4327 29.7291 18.6838 29.6892 18.9374C29.5852 19.1285 29.4425 19.2957 29.2704 19.4286C28.8421 19.7191 28.5841 20.2016 28.5804 20.719C28.6128 21.0412 28.7852 21.3327 29.0519 21.5163C29.4461 21.7797 29.932 21.8677 30.3936 21.7593C30.6493 21.6923 30.8984 21.6021 31.1377 21.4899C31.3553 21.3829 31.5855 21.3039 31.8229 21.2547C32.4296 21.1694 33.0525 21.5704 33.6884 22.0266C34.007 22.2571 34.5259 22.6926 34.4186 23.0233C34.3362 23.2767 34.0267 23.4598 33.6999 23.6543C33.5676 23.7324 33.4382 23.8091 33.2887 23.9131C32.7594 24.3138 32.1793 24.6427 31.5637 24.8911C31.331 24.9685 31.0941 25.0325 30.854 25.0828C30.3541 25.1702 29.8738 25.3455 29.4352 25.6008C28.5549 26.1691 28.6623 27.0786 28.7298 27.6253C28.714 27.62 28.6968 27.6138 28.6781 27.6056C28.5961 27.5721 28.5156 27.5337 28.4356 27.4963C27.9401 27.1621 27.2983 27.1364 26.7776 27.43C26.257 27.7236 25.9468 28.2861 25.9765 28.8831C25.9765 30.0202 26.8208 30.6834 27.4993 31.2157L27.735 31.4026C27.8848 31.5402 28.0196 31.6932 28.137 31.8592C27.1739 31.6168 26.2101 31.3783 25.2457 31.1438C24.435 30.9479 23.6165 30.7063 23.2811 30.1064C23.1529 29.8346 23.0664 29.5449 23.0247 29.2473C22.964 28.7749 22.7979 28.3224 22.5388 27.9228C22.047 27.3739 21.3843 27.0072 20.6581 26.8821L20.5704 26.8571C19.8516 26.6434 19.4577 26.3861 19.3293 26.0493C19.2492 25.6121 19.3206 25.1606 19.5315 24.7694C19.8024 24.2059 19.8928 23.5725 19.7903 22.9557C19.6827 22.4827 19.3666 22.0839 18.9306 21.8713C18.6716 21.7507 18.3888 21.6899 18.1031 21.6935C18.0422 21.6935 17.9804 21.6964 17.9181 21.7012C19.6013 19.4168 21.9725 17.7321 24.6837 16.8947ZM26.6512 42.8871L26.6555 42.8914C26.4675 42.7871 26.2851 42.6729 26.1092 42.5493C25.7219 42.308 25.4571 41.9117 25.3823 41.4615C25.409 41.1725 25.5025 40.8936 25.6554 40.6469C25.7625 40.4188 25.8417 40.1786 25.8912 39.9315C25.9216 39.7072 26.0036 39.493 26.1308 39.3057C26.2725 39.1765 26.4367 39.0745 26.6152 39.0047C26.8152 38.9162 27.0053 38.807 27.1825 38.6789C27.5649 38.3744 27.882 37.9959 28.115 37.5663C28.2276 37.3688 28.3249 37.1537 28.4188 36.9434C28.5463 36.6098 28.724 36.2978 28.9459 36.0181C29.4251 35.5135 30.3691 35.8882 30.7515 36.0712C31.4811 36.3989 32.1519 36.8442 32.7372 37.3894L32.7923 37.446C33.4123 38.1013 34.0721 38.718 34.7679 39.2922C35.3435 39.7369 35.9742 40.1053 36.6444 40.3881C33.7812 42.5233 30.1823 43.4232 26.6512 42.8871ZM37.4911 39.7063C36.7311 39.4251 36.0165 39.0343 35.3698 38.5462C34.7046 37.9957 34.0737 37.4053 33.4804 36.778L33.4253 36.722C32.7646 36.096 32.0032 35.5857 31.1731 35.2126C29.9608 34.6309 28.898 34.6855 28.2555 35.363C27.9559 35.7177 27.7173 36.1199 27.5496 36.5528C27.4639 36.7416 27.3805 36.928 27.288 37.0909C27.1176 37.4095 26.8854 37.691 26.6052 37.919C26.4792 38.0067 26.3449 38.0816 26.2041 38.1427C25.9122 38.2626 25.6471 38.4394 25.4245 38.6631C25.1818 38.9662 25.0221 39.3271 24.9611 39.7106C24.9278 39.882 24.8755 40.0491 24.8054 40.209C24.5771 40.5901 24.4464 41.0216 24.425 41.4653C24.432 41.8134 24.5337 42.153 24.7191 42.4476C21.0283 41.3034 18.0115 38.6211 16.4435 35.0896C14.8755 31.558 14.9089 27.5213 16.5352 24.0162L16.5717 23.9371C16.7017 23.5936 16.8959 23.278 17.1438 23.007C17.2319 22.9192 17.3358 22.8486 17.45 22.7991C17.6567 22.7066 17.8801 22.6577 18.1065 22.6554C18.2465 22.6521 18.3854 22.6799 18.5134 22.7368C18.6943 22.8281 18.8227 22.9979 18.8612 23.1968C18.9032 23.6256 18.8234 24.0574 18.6308 24.4427C18.3249 25.0457 18.2544 25.7409 18.4329 26.393C18.7544 27.233 19.6505 27.5857 20.3017 27.7792L20.3975 27.8061C20.9153 27.8891 21.395 28.1295 21.7713 28.4946C21.9413 28.7833 22.0493 29.1043 22.0881 29.4372C22.147 29.8334 22.2683 30.2179 22.4475 30.5762C22.9707 31.5139 24.0522 31.8431 25.024 32.0779C26.0667 32.3312 27.1103 32.5897 28.1549 32.8532C28.365 32.9217 28.5917 32.9188 28.7999 32.8451C29.0428 32.7507 29.2167 32.5338 29.2561 32.2763C29.3654 31.5503 28.3624 30.6773 28.3457 30.6648L28.0936 30.4645C27.499 29.9978 26.9374 29.5569 26.9374 28.8832C26.9317 28.6002 27.0948 28.3409 27.3523 28.2234C27.5311 28.1491 27.6806 28.2033 28.0289 28.3672C28.1248 28.4122 28.2206 28.4572 28.3083 28.4927C28.6806 28.6924 29.1385 28.6347 29.4497 28.349C29.6521 28.123 29.7375 27.8156 29.6806 27.5176C29.6021 26.8789 29.6327 26.6148 29.9547 26.4064C30.3024 26.2153 30.6799 26.0842 31.0712 26.0187C31.3469 25.9597 31.6189 25.8847 31.8858 25.794C32.5927 25.5119 33.2586 25.1364 33.8658 24.6775C33.9617 24.6099 34.0723 24.5457 34.1835 24.4801C34.6964 24.2502 35.1045 23.8364 35.3273 23.3204C35.553 22.6276 35.1893 21.9308 34.2453 21.2499C33.6392 20.8153 32.7201 20.1583 31.6822 20.3074C31.3602 20.3665 31.0476 20.469 30.7531 20.6121C30.5654 20.7006 30.3705 20.7728 30.1704 20.8277C29.9783 20.8721 29.7765 20.8403 29.6074 20.7391C29.5369 20.6882 29.5331 20.6485 29.5317 20.6337C29.5211 20.5091 29.6754 20.3553 29.915 20.1343C30.2102 19.9024 30.4426 19.6003 30.5912 19.2555C30.7883 18.5778 30.4973 17.8531 29.8863 17.4999C29.306 17.1807 28.632 17.0754 27.982 17.2023C27.754 17.2291 27.5245 17.24 27.2949 17.2349C26.7221 17.2038 26.1754 16.9849 25.7395 16.612C31.7039 15.2684 37.8197 18.1421 40.5925 23.591C43.365 29.04 42.0881 35.6756 37.4911 39.7063Z" stroke="white" stroke-width="0.6" mask="url(#path-5-outside-1_33_176)"/>
</g>
<defs>
<clipPath id="clip0_33_176">
<rect width="58" height="58" fill="white"/>
</clipPath>
</defs>
</svg>
