<svg width="46" height="46" viewBox="0 0 46 46" fill="none" xmlns="http://www.w3.org/2000/svg">
<g clip-path="url(#clip0_33_261)">
<path d="M19.1669 20.1251C19.1669 22.3179 22.3661 23.5813 22.7311 23.7186C22.9042 23.7824 23.0944 23.7824 23.2677 23.7186C23.6341 23.5813 26.8334 22.3179 26.8334 20.1251C26.7994 18.7182 25.6339 17.6039 24.2269 17.6334C23.7931 17.6264 23.3667 17.7464 23 17.9784C22.6336 17.7464 22.2072 17.6264 21.7734 17.6334C20.3664 17.6039 19.2006 18.7182 19.1669 20.1251ZM21.7734 19.1667C22.0387 19.1642 22.2893 19.2899 22.4458 19.5043C22.7525 19.8082 23.2474 19.8082 23.5545 19.5043C23.711 19.2899 23.9612 19.1642 24.2269 19.1667C24.787 19.1376 25.2661 19.5654 25.3001 20.1251C25.3001 20.9341 23.8917 21.7813 23 22.1723C22.1086 21.7813 20.7002 20.9341 20.7002 20.1251C20.7342 19.5654 21.2133 19.1376 21.7734 19.1667Z" fill="white"/>
<path d="M44.6536 14.7094C44.0893 14.4914 43.4593 14.5213 42.9181 14.7915C42.3977 15.0488 42.0067 15.5103 41.8386 16.0658L41.3378 17.7455C40.9977 18.985 40.2811 20.0884 39.2872 20.9033C38.8057 21.2869 38.3832 21.7393 38.0336 22.2457C37.5163 22.9897 36.8407 23.6091 36.0549 24.0598L35.6791 24.2746C35.253 23.9429 34.728 23.7643 34.1879 23.7671C33.4007 23.7604 32.6616 24.1458 32.2162 24.795L29.6778 28.4628C28.5537 28.7762 24.6599 30.0926 22.9999 33.4582C21.3403 30.0926 17.4465 28.7762 16.3224 28.4628L13.7924 24.8041C13.347 24.1493 12.604 23.7601 11.8119 23.7671C11.2722 23.7643 10.7472 23.9429 10.3211 24.2746L9.95226 24.0643C9.16051 23.612 8.47932 22.9887 7.95886 22.2397C7.61001 21.7358 7.18887 21.2855 6.70912 20.904C5.71488 20.0888 4.99823 18.9847 4.65851 17.7448L4.15771 16.0658C3.9903 15.511 3.6011 15.0498 3.08204 14.7915C2.54087 14.5206 1.91021 14.4907 1.34553 14.7094C0.529222 15.0287 -0.00597782 15.8184 -1.16604e-05 16.6951V19.4553C0.00139214 20.3972 0.229159 21.3252 0.66469 22.1608L2.07025 24.881C2.37277 25.4667 2.76899 25.9995 3.24313 26.4578L7.35241 30.4232C10.2344 33.5151 14.2932 38.487 14.2932 39.867C14.1475 40.857 13.7969 41.806 13.2635 42.6528C12.8897 43.3554 12.9139 44.2033 13.3277 44.8831C13.7524 45.5832 14.5146 46.0079 15.3334 46.0002H19.9333C20.8163 46.01 21.6287 45.5183 22.0295 44.7315C22.4307 43.898 22.7553 43.0304 22.9999 42.1387C23.2449 43.0304 23.5695 43.898 23.9706 44.7315C24.3714 45.5183 25.1835 46.01 26.0665 46.0002H30.6668C31.4856 46.0079 32.2482 45.5836 32.6732 44.8831C33.0866 44.2033 33.1112 43.3554 32.7374 42.6528C32.204 41.806 31.853 40.857 31.707 39.867C31.707 38.487 35.7658 33.5151 38.62 30.4523L42.7602 26.4578C43.2329 25.9991 43.6281 25.4664 43.9299 24.881L45.3306 22.1678C45.7682 21.3315 45.9981 20.4022 45.9998 19.4581V16.6982C46.0076 15.8201 45.4717 15.0287 44.6536 14.7094ZM20.657 44.0422C20.5159 44.3093 20.2355 44.4739 19.9333 44.4669H15.3334C15.0516 44.4746 14.787 44.3311 14.6396 44.0903C14.5037 43.8696 14.4967 43.5927 14.6213 43.3652C15.2846 42.3064 15.6966 41.1097 15.8265 39.867C15.8265 37.3906 9.70133 30.6945 8.44563 29.3483L4.30581 25.3541C3.95064 25.0122 3.65409 24.6146 3.42773 24.177L2.02568 21.4561C1.70315 20.8394 1.53435 20.154 1.53329 19.4581V16.6982C1.52733 16.4606 1.66595 16.2434 1.88389 16.1486C1.9604 16.1181 2.04217 16.102 2.12465 16.1002C2.21975 16.0998 2.31381 16.122 2.39909 16.1648C2.53912 16.2322 2.64511 16.3543 2.69178 16.5027L3.19189 18.1803C3.6211 19.7241 4.51954 21.0963 5.76296 22.1071C6.12338 22.3942 6.43924 22.7325 6.7007 23.1115C7.3489 24.0461 8.19715 24.8248 9.18403 25.3906L9.49602 25.5692C9.45145 25.7419 9.42794 25.9195 9.42548 26.0977C9.42864 26.3546 9.47286 26.6098 9.55674 26.8526C9.74134 27.371 9.91681 27.9308 10.0625 28.4667C10.4162 29.7904 11.1223 30.9932 12.1057 31.9474C12.1253 31.9667 12.1464 31.9849 12.1685 32.0018L16.1781 35.1067C16.5133 35.366 16.9948 35.3046 17.2541 34.9698C17.5135 34.635 17.4524 34.1531 17.1173 33.8938L13.1413 30.8156C12.3721 30.0582 11.82 29.1082 11.5431 28.0648C11.3898 27.4889 11.1981 26.8926 11.0065 26.3574C10.9767 26.2739 10.9602 26.1862 10.9574 26.0977C10.9574 25.9521 11.002 25.81 11.0855 25.6906C11.0914 25.6812 11.0921 25.6713 11.0985 25.6622C11.1044 25.6527 11.1206 25.6352 11.1297 25.6201C11.3104 25.4215 11.5687 25.3123 11.8369 25.3218C12.105 25.3309 12.3556 25.4573 12.5219 25.6675L15.2214 29.5697C15.3323 29.7297 15.4997 29.8417 15.69 29.8835C15.9591 29.9417 22.2334 31.3701 22.2334 36.8003C22.2369 39.2995 21.7 41.7698 20.6594 44.0422H20.657ZM44.4665 19.4581C44.4655 20.1554 44.296 20.8423 43.972 21.4599L42.57 24.177C42.3433 24.6146 42.0464 25.0122 41.6912 25.3541L37.5261 29.3774C36.2992 30.6945 30.1737 37.3906 30.1737 39.867C30.3032 41.1097 30.7156 42.3064 31.3789 43.3652C31.5035 43.5927 31.4964 43.8696 31.3606 44.0903C31.2132 44.3311 30.9486 44.4746 30.6668 44.4669H26.0665C25.7637 44.4746 25.4825 44.31 25.3408 44.0422C24.3002 41.7698 23.7632 39.2995 23.7667 36.8003C23.7667 31.3701 30.041 29.9417 30.3088 29.8835C30.4987 29.8417 30.6661 29.7297 30.777 29.5697L33.4825 25.6598C33.6429 25.4415 33.8952 25.3092 34.1661 25.3014C34.4371 25.2937 34.6964 25.4116 34.8687 25.6208C34.8779 25.6359 34.8908 25.6482 34.9003 25.6629C34.9094 25.6773 34.907 25.6819 34.9133 25.6913C34.9965 25.8107 35.041 25.9528 35.0414 26.0984C35.0389 26.1806 35.0246 26.262 34.9982 26.3399C34.802 26.8933 34.615 27.49 34.4564 28.0687C34.1791 29.111 33.6274 30.06 32.8585 30.8163L28.8826 33.8945C28.5481 34.1542 28.487 34.6364 28.7471 34.9708C29.0068 35.3056 29.4886 35.3664 29.8235 35.1067L33.8331 32.0018C33.8552 31.9849 33.8762 31.9667 33.8959 31.9474C34.8786 30.9942 35.5847 29.7922 35.9384 28.4695C36.0848 27.9329 36.2603 27.371 36.4505 26.8351C36.5312 26.5975 36.5737 26.3487 36.5761 26.0977C36.5737 25.9195 36.5501 25.7419 36.5056 25.5692L36.8246 25.386C37.8069 24.8224 38.6513 24.0471 39.297 23.1168C39.5599 22.7356 39.8772 22.3952 40.2393 22.1064C41.4821 21.0963 42.3801 19.7248 42.809 18.1817L43.3098 16.5027C43.3565 16.3543 43.4625 16.2322 43.6025 16.1648C43.7636 16.0858 43.9506 16.0788 44.117 16.1455C44.3353 16.2402 44.4739 16.4575 44.4683 16.6951L44.4665 19.4581Z" fill="white"/>
<path d="M19.5034 11.5652C16.5196 13.0312 14.6129 16.0493 14.5704 19.3735C14.4876 22.6728 16.3635 25.7086 19.3507 27.1106C19.5062 27.1882 19.6406 27.3029 19.7417 27.4444C20.4903 28.506 21.7091 29.1363 23.0084 29.1335C24.3072 29.1307 25.5236 28.4951 26.2676 27.4303C26.3641 27.2966 26.4919 27.1882 26.6403 27.1155C29.5476 25.7461 31.4115 22.8304 31.4333 19.6168C31.4333 15.8384 29.529 12.749 26.4631 11.5523C26.2231 11.4554 26.0662 11.222 26.0665 10.9634V7.96097C26.063 7.1787 26.5172 6.46662 27.2282 6.14024C27.8866 5.77946 28.2151 5.0172 28.0255 4.29073C27.836 3.56426 27.1769 3.05994 26.4263 3.06661H26.0665V1.73651C26.0658 0.777707 25.2888 0.000701902 24.3304 0H21.6698C20.7114 0.000701902 19.9344 0.777707 19.9333 1.73651V3.06661H19.5739C18.6646 3.0645 17.9252 3.79869 17.921 4.70801C17.921 5.30533 18.2474 5.85456 18.772 6.14024C19.4799 6.42311 19.9414 7.11202 19.9333 7.87429V10.9634C19.9231 11.2318 19.754 11.4684 19.5034 11.5652ZM21.4666 1.73651C21.4666 1.6242 21.5575 1.5333 21.6698 1.5333H24.3304C24.4423 1.5333 24.5332 1.6242 24.5332 1.73651V3.06661H21.4666V1.73651ZM19.5062 4.79399C19.4739 4.77715 19.4536 4.7431 19.4543 4.7066C19.4578 4.64413 19.5115 4.59641 19.5739 4.59992H26.4263C26.4891 4.59711 26.5424 4.64519 26.5459 4.70801C26.5463 4.74416 26.5259 4.7775 26.4936 4.79399C25.2885 5.3878 24.5273 6.61718 24.5332 7.96097V10.9634C24.5353 11.8534 25.0786 12.6525 25.9058 12.982C28.3667 13.9426 29.9 16.4831 29.9 19.6168C29.88 22.2384 28.3568 24.6157 25.9841 25.73C25.6068 25.9114 25.2801 26.1831 25.0333 26.5214C24.5831 27.2033 23.8169 27.6093 22.9999 27.5998C22.1864 27.617 21.4214 27.2141 20.9753 26.5337C20.7251 26.189 20.3934 25.9118 20.0102 25.7261C17.5704 24.5859 16.036 22.1103 16.1002 19.4181C16.142 16.6895 17.689 14.2072 20.1204 12.968C20.9258 12.6248 21.4536 11.839 21.4666 10.9634V7.87429C21.4754 6.55155 20.7082 5.34639 19.5062 4.79399Z" fill="white"/>
<path d="M33.1913 7.89134L31.658 9.42465C31.4587 9.61733 31.379 9.9023 31.4492 10.1704C31.519 10.4386 31.7286 10.6477 31.9967 10.7179C32.2648 10.7881 32.5498 10.7081 32.7421 10.5087L34.2754 8.97544C34.566 8.67467 34.5618 8.19667 34.2663 7.90082C33.9704 7.60497 33.4924 7.60111 33.1913 7.89134Z" fill="white"/>
<path d="M32.9667 12.2668C32.9667 12.6901 33.3099 13.0333 33.7335 13.0333H35.2668C35.6901 13.0333 36.0333 12.6901 36.0333 12.2668C36.0333 11.8432 35.6901 11.5 35.2668 11.5H33.7335C33.3099 11.5 32.9667 11.8432 32.9667 12.2668Z" fill="white"/>
<path d="M13.8001 10.7334C14.11 10.7334 14.3897 10.5466 14.5083 10.2603C14.627 9.97389 14.5613 9.644 14.342 9.42465L12.8087 7.89134C12.5079 7.60111 12.0299 7.60497 11.7341 7.90082C11.4382 8.19667 11.4344 8.67467 11.7246 8.97543L13.2579 10.5087C13.4018 10.6526 13.5969 10.7334 13.8001 10.7334Z" fill="white"/>
<path d="M9.96667 12.2668C9.96667 12.6901 10.3099 13.0333 10.7335 13.0333H12.2668C12.6901 13.0333 13.0333 12.6901 13.0333 12.2668C13.0333 11.8432 12.6901 11.5 12.2668 11.5H10.7335C10.3099 11.5 9.96667 11.8432 9.96667 12.2668Z" fill="white"/>
</g>
<defs>
<clipPath id="clip0_33_261">
<rect width="46" height="46" fill="white"/>
</clipPath>
</defs>
</svg>
