<svg width="40" height="40" viewBox="0 0 40 40" fill="none" xmlns="http://www.w3.org/2000/svg">
<path d="M39.1318 18.2069C39.9191 17.4396 40.197 16.3134 39.8574 15.2666C39.517 14.2197 38.6304 13.4724 37.541 13.3138L27.8558 11.9065C27.4433 11.8465 27.0869 11.5878 26.9027 11.2137L22.5727 2.43759C22.0865 1.4516 21.0997 0.838867 20 0.838867C18.9011 0.838867 17.9143 1.4516 17.4281 2.43759L13.0973 11.2137C12.9131 11.5878 12.5559 11.8465 12.1434 11.9065L2.45815 13.3146C1.36965 13.4724 0.482981 14.2197 0.142573 15.2666C-0.197035 16.3134 0.0808987 17.4396 0.868243 18.2069L7.87585 25.0375C8.17461 25.3291 8.31157 25.7488 8.24109 26.1589L6.58711 35.8048C6.40128 36.8885 6.83781 37.9626 7.72767 38.6098C8.61674 39.2578 9.77413 39.3419 10.7489 38.8285L19.4105 34.2742C19.7797 34.0804 20.2203 34.0804 20.5895 34.2742L29.2519 38.8285C29.6748 39.0511 30.133 39.1609 30.5887 39.1609C31.1806 39.1609 31.7701 38.9758 32.2731 38.6098C33.163 37.9626 33.5995 36.8885 33.4137 35.8048L31.7589 26.1597C31.6884 25.7488 31.8254 25.3299 32.1241 25.0383L39.1318 18.2069ZM30.181 26.4304L31.835 36.0756C31.9183 36.5609 31.7301 37.0247 31.3312 37.3146C30.9315 37.6038 30.4341 37.639 29.9976 37.4116L21.3352 32.8565C20.9179 32.6378 20.4582 32.5273 20 32.5273C19.5419 32.5273 19.0829 32.6378 18.6648 32.8573L10.004 37.4116C9.56588 37.639 9.06848 37.6038 8.66961 37.3146C8.27073 37.0247 8.0833 36.5617 8.1658 36.0756L9.81979 26.4304C9.97918 25.4997 9.67081 24.5497 8.99479 23.8913L1.98639 17.0599C1.63316 16.7155 1.51302 16.2301 1.666 15.7616C1.81818 15.2922 2.20024 14.9702 2.68803 14.8989L12.3724 13.4917C13.3072 13.3563 14.1153 12.77 14.5326 11.9226L18.8634 3.14644C19.0813 2.70431 19.5066 2.44079 19.9992 2.44079C20.4926 2.44079 20.9171 2.70431 21.1358 3.14644L25.4666 11.9226C25.8839 12.77 26.6912 13.3563 27.626 13.4917L37.3112 14.8989C37.799 14.9702 38.181 15.2922 38.3332 15.7616C38.4854 16.2301 38.366 16.7155 38.0128 17.0599L31.0052 23.8905C30.3292 24.5497 30.0208 25.4989 30.181 26.4304Z" fill="white"/>
</svg>
