<svg width="32" height="42" viewBox="0 0 32 42" fill="none" xmlns="http://www.w3.org/2000/svg">
<path d="M8.29996 42.0001H23.7C24.8598 42.0001 25.8 41.0599 25.8 39.9001V35.6777C29.3563 32.761 31.4126 28.3996 31.4 23.8001C31.4699 19.8947 29.9469 16.129 27.1818 13.3701L28.4075 12.1444C28.6752 12.2744 28.9688 12.3424 29.2664 12.3432H29.3427C29.953 12.3398 30.5308 12.0679 30.9226 11.5998V11.5963C31.6139 10.7292 31.5355 9.47928 30.7413 8.70534L27.83 5.79124C27.4515 5.40542 26.9354 5.18562 26.395 5.18014H26.3173C25.7697 5.18131 25.2453 5.40163 24.8613 5.79194C24.233 6.42199 24.0688 7.37899 24.4511 8.18244L22.685 9.94854C22.016 9.61494 21.3232 9.33136 20.6123 9.10014C19.1675 3.50014 12.752 0.782035 10.8088 0.079235C10.2971 -0.102352 9.72662 0.0261751 9.34226 0.409635L8.02696 1.70324C7.74971 1.97242 7.59531 2.34374 7.59996 2.73014C7.60393 3.11846 7.76535 3.48854 8.04726 3.75564C9.61956 5.20305 10.7453 7.0698 11.2918 9.13584C5.9308 10.8573 1.93668 15.3673 0.87586 20.897C-0.184965 26.4267 1.85663 32.0946 6.19996 35.6777V39.9001C6.19996 40.4571 6.42121 40.9912 6.81503 41.3851C7.20886 41.7789 7.743 42.0001 8.29996 42.0001ZM25.3576 9.25624C25.6334 9.51458 26.0646 9.50727 26.3315 9.23974C26.5985 8.97221 26.6049 8.54106 26.346 8.26574L25.8511 7.77084C25.5792 7.49773 25.5792 7.05624 25.8511 6.78314C25.9798 6.65147 26.1569 6.57836 26.3411 6.58084H26.3551C26.5386 6.57315 26.7163 6.64662 26.8409 6.78174L29.7529 9.69374C30.0322 9.9543 30.0753 10.3815 29.8537 10.6926C29.7241 10.8633 29.5172 10.957 29.3035 10.9418C29.1212 10.9493 28.9449 10.8764 28.8212 10.7423L28.3263 10.2474C28.0509 9.98851 27.6198 9.9949 27.3523 10.2619C27.0847 10.5288 27.0774 10.96 27.3358 11.2358L24.981 13.5892C24.6297 13.9534 24.1093 14.0997 23.6197 13.972C23.1302 13.8442 22.7476 13.4622 22.6192 12.9728C22.4907 12.4834 22.6363 11.9628 23 11.611L25.3576 9.25624ZM1.99996 23.8001C1.98612 17.7133 5.91689 12.3189 11.7153 10.4672C12.4262 10.2442 12.8406 9.50618 12.661 8.78304C12.0297 6.45713 10.7649 4.35221 9.00766 2.70284L10.3433 1.40014C12.1122 2.04064 17.9831 4.51304 19.2571 9.45364C19.376 9.92294 19.7305 10.2966 20.193 10.4399C20.7014 10.6034 21.1996 10.7974 21.6847 11.0209C20.8843 12.2134 21.116 13.8181 22.2209 14.7355C23.3258 15.6529 24.9457 15.5856 25.9708 14.5797L26.1927 14.3578C28.6902 16.8584 30.0645 20.2665 30 23.8001C30.0103 28.0895 28.0426 32.1441 24.6667 34.7901L24.6632 34.7943C23.8396 35.4441 22.9457 35.9994 21.9983 36.4498C21.7663 36.5534 21.6087 36.7745 21.5864 37.0275C21.5641 37.2806 21.6806 37.5258 21.8909 37.6684C22.1011 37.8109 22.3721 37.8284 22.5989 37.714C23.2212 37.4173 23.8229 37.0792 24.4 36.7018V39.9001C24.4 40.2867 24.0866 40.6001 23.7 40.6001H8.29996C7.91336 40.6001 7.59996 40.2867 7.59996 39.9001V36.7025C8.17626 37.0811 8.77754 37.4202 9.39966 37.7175C9.74681 37.8726 10.1543 37.7222 10.3174 37.3788C10.4806 37.0354 10.3398 36.6245 10.0003 36.4533C9.05459 36.0033 8.16235 35.4487 7.34026 34.7999L7.33466 34.7936C3.95719 32.1471 1.9889 28.091 1.99996 23.8001Z" fill="white"/>
<path d="M15.991 36.4005C16.2243 36.4005 16.4588 36.3942 16.6945 36.3816C20.9094 36.1488 24.7278 33.8208 26.8652 30.1806C29.0026 26.5404 29.1751 22.0717 27.3247 18.2775C27.086 17.8008 26.5984 17.5 26.0654 17.5005H5.93547C5.40205 17.5001 4.9142 17.8012 4.67547 18.2782C2.77586 22.1819 3.01857 26.7884 5.3179 30.4709C7.61723 34.1533 11.6496 36.3936 15.991 36.4005ZM5.93547 18.9005H26.0717C27.7134 22.272 27.5581 26.2416 25.6582 29.4747C23.7583 32.7078 20.366 34.7751 16.6217 34.9816C12.6562 35.2056 8.86921 33.3108 6.67099 30.0028C4.47278 26.6949 4.19286 22.4695 5.93547 18.9005Z" fill="white"/>
<path d="M15.2999 31.4998C16.4597 31.4998 17.3999 30.5596 17.3999 29.3998C17.3999 28.24 16.4597 27.2998 15.2999 27.2998C14.1401 27.2998 13.2 28.24 13.2 29.3998C13.2 30.5596 14.1401 31.4998 15.2999 31.4998ZM15.2999 28.6998C15.6865 28.6998 15.9999 29.0132 15.9999 29.3998C15.9999 29.7864 15.6865 30.0998 15.2999 30.0998C14.9133 30.0998 14.5999 29.7864 14.5999 29.3998C14.5999 29.0132 14.9133 28.6998 15.2999 28.6998Z" fill="white"/>
<path d="M22.9999 29.4002C24.1597 29.4002 25.0999 28.46 25.0999 27.3002C25.0999 26.1404 24.1597 25.2002 22.9999 25.2002C21.8401 25.2002 20.8999 26.1404 20.8999 27.3002C20.8999 28.46 21.8401 29.4002 22.9999 29.4002ZM22.9999 26.6002C23.3865 26.6002 23.6999 26.9136 23.6999 27.3002C23.6999 27.6868 23.3865 28.0002 22.9999 28.0002C22.6133 28.0002 22.2999 27.6868 22.2999 27.3002C22.2999 26.9136 22.6133 26.6002 22.9999 26.6002Z" fill="white"/>
<path d="M24.3999 23.7999C24.7865 23.7999 25.0999 23.4865 25.0999 23.0999C25.0999 22.7133 24.7865 22.3999 24.3999 22.3999C24.0133 22.3999 23.7 22.7133 23.7 23.0999C23.7 23.4865 24.0133 23.7999 24.3999 23.7999Z" fill="white"/>
<path d="M19.5 32.1998C19.8866 32.1998 20.2 31.8864 20.2 31.4998C20.2 31.1132 19.8866 30.7998 19.5 30.7998C19.1134 30.7998 18.8 31.1132 18.8 31.4998C18.8 31.8864 19.1134 32.1998 19.5 32.1998Z" fill="white"/>
<path d="M9.69988 30.8004C10.0865 30.8004 10.3999 30.487 10.3999 30.1004C10.3999 29.7138 10.0865 29.4004 9.69988 29.4004C9.31328 29.4004 8.99988 29.7138 8.99988 30.1004C8.99988 30.487 9.31328 30.8004 9.69988 30.8004Z" fill="white"/>
<path d="M11.7999 27.3004C12.1865 27.3004 12.4999 26.987 12.4999 26.6004C12.4999 26.2138 12.1865 25.9004 11.7999 25.9004C11.4133 25.9004 11.0999 26.2138 11.0999 26.6004C11.0999 26.987 11.4133 27.3004 11.7999 27.3004Z" fill="white"/>
<path d="M7.60003 27.3004C7.98663 27.3004 8.30003 26.987 8.30003 26.6004C8.30003 26.2138 7.98663 25.9004 7.60003 25.9004C7.21343 25.9004 6.90002 26.2138 6.90002 26.6004C6.90002 26.987 7.21343 27.3004 7.60003 27.3004Z" fill="white"/>
<path d="M18.0999 25.8998C19.6463 25.8998 20.8999 24.6462 20.8999 23.0998C20.8999 21.5534 19.6463 20.2998 18.0999 20.2998C16.5535 20.2998 15.2999 21.5534 15.2999 23.0998C15.2999 24.6462 16.5535 25.8998 18.0999 25.8998ZM18.0999 21.6998C18.8731 21.6998 19.4999 22.3266 19.4999 23.0998C19.4999 23.873 18.8731 24.4998 18.0999 24.4998C17.3267 24.4998 16.6999 23.873 16.6999 23.0998C16.6999 22.3266 17.3267 21.6998 18.0999 21.6998Z" fill="white"/>
<path d="M9.69997 24.4998C10.8598 24.4998 11.8 23.5596 11.8 22.3998C11.8 21.24 10.8598 20.2998 9.69997 20.2998C8.54017 20.2998 7.59998 21.24 7.59998 22.3998C7.59998 23.5596 8.54017 24.4998 9.69997 24.4998ZM9.69997 21.6998C10.0866 21.6998 10.4 22.0132 10.4 22.3998C10.4 22.7864 10.0866 23.0998 9.69997 23.0998C9.31337 23.0998 8.99997 22.7864 8.99997 22.3998C8.99997 22.0132 9.31337 21.6998 9.69997 21.6998Z" fill="white"/>
</svg>
