<svg width="48" height="48" viewBox="0 0 48 48" fill="none" xmlns="http://www.w3.org/2000/svg">
<g clip-path="url(#clip0_33_298)">
<path d="M47.2681 35.1996C45.3791 35.0726 43.483 35.0994 41.5984 35.2796V34.2534C42.146 34.074 42.6082 33.699 42.8966 33.2C43.3064 32.4911 43.299 31.6157 42.8774 30.9139C42.5362 30.345 42.1623 29.7964 41.7575 29.2709C41.5197 28.9868 41.1682 28.8227 40.7976 28.8227C40.4271 28.8227 40.0756 28.9868 39.8377 29.2709C39.4333 29.796 39.0593 30.3441 38.7178 30.9123C38.2963 31.6145 38.289 32.4901 38.6986 33.1993C38.9872 33.6988 39.4501 34.0742 39.9985 34.2535V35.4534C36.1836 35.8828 32.501 37.1065 29.1878 39.0458C26.4643 38.5384 23.8131 37.7005 21.2927 36.5509C22.9937 35.8932 24.6255 35.0688 26.1641 34.0896L26.2441 34.04C26.3353 33.9848 26.4281 33.928 26.4992 33.88C37.8035 26.4952 46.7257 27.2008 47.1017 27.2375C47.5417 27.2773 47.9306 26.9528 47.9704 26.5128C48.0101 26.0728 47.6857 25.6839 47.2457 25.6441C46.9761 25.6193 42.5206 25.2666 35.9989 27.4543V25.5081C37.0637 25.2744 37.9831 24.6078 38.5363 23.6683C39.314 22.3652 39.3568 20.7511 38.649 19.4088C37.9993 18.1978 37.2823 17.0241 36.5013 15.8932C36.2104 15.4586 35.7219 15.1978 35.1991 15.1978C34.6762 15.1978 34.1877 15.4586 33.8968 15.8932C33.1158 17.0241 32.3988 18.1978 31.7491 19.4088C31.0414 20.7511 31.0841 22.3652 31.8618 23.6683C32.415 24.6078 33.3343 25.2743 34.3992 25.5081V28.0294C33.3281 28.439 32.2122 28.9141 31.0563 29.4693C29.8603 27.5011 27.6972 26.3295 25.3953 26.4031C23.0935 26.4766 21.0096 27.7839 19.9416 29.8245C18.1515 28.8658 16.3009 28.0246 14.4014 27.3063V25.1394C15.1673 24.9154 15.8202 24.4103 16.2292 23.7251C16.9223 22.5929 16.9871 21.1847 16.4013 19.9935C15.9068 19.002 15.3596 18.0375 14.7622 17.1043C14.5159 16.6972 14.0747 16.4484 13.5987 16.4484C13.1228 16.4484 12.6816 16.6972 12.4352 17.1043C11.8394 18.0374 11.2942 19.0019 10.8018 19.9935C10.2169 21.1853 10.283 22.5935 10.977 23.7251C11.3854 24.4096 12.0369 24.9147 12.8017 25.1394V26.7392C10.9721 26.1244 9.10085 25.6411 7.20235 25.293V24.4011C7.69036 24.2135 8.10393 23.872 8.38065 23.4283C8.89153 22.5957 8.94037 21.5594 8.5102 20.6823C8.17621 20.0117 7.80641 19.3597 7.4023 18.7289C7.17563 18.4 6.8018 18.2036 6.40238 18.2036C6.00296 18.2036 5.62912 18.4 5.40246 18.7289C4.99854 19.3592 4.62874 20.0108 4.29456 20.6807C3.86439 21.5581 3.91332 22.5945 4.42411 23.4275C4.70064 23.8714 5.11421 24.2131 5.60241 24.401V25.0409C4.0139 24.8086 2.40675 24.7282 0.802963 24.801C0.517152 24.8219 0.264243 24.9936 0.139383 25.2515C0.0145222 25.5094 0.0368321 25.8143 0.197782 26.0514C0.358732 26.2884 0.633951 26.4216 0.919762 26.4007C1.81488 26.3359 9.97628 25.936 20.4055 31.8961C21.5277 32.5357 22.6928 33.097 23.8923 33.5759C22.5621 34.306 21.1702 34.918 19.7328 35.4045C18.9178 34.0222 18.0754 32.792 17.4715 31.9536C17.1332 31.4812 16.5879 31.201 16.0068 31.201C15.4258 31.201 14.8804 31.4813 14.5421 31.9536C14.3318 32.2464 14.0894 32.5936 13.8318 32.9695C9.62523 31.5196 5.1729 30.9182 0.732471 31.2001C0.44666 31.2252 0.196001 31.401 0.0748902 31.661C-0.0462208 31.921 -0.0194114 32.226 0.145288 32.4609C0.309988 32.6958 0.587456 32.825 0.873267 32.7998C4.95102 32.5586 9.03786 33.0823 12.9231 34.3436C12.5583 34.9212 12.1848 35.5435 11.8264 36.1834C10.9704 37.7029 10.9923 39.5641 11.884 41.0629C12.6003 42.2966 13.8344 43.1419 15.2436 43.3642V45.7183C13.1996 46.1464 11.1175 46.3664 9.02914 46.3751L0.802869 46.3982C0.361076 46.3982 0.00299228 46.7563 0.00299228 47.1981C0.00299228 47.6399 0.361076 47.998 0.802869 47.998L9.03148 47.9748C11.3773 47.9659 13.7152 47.7028 16.0043 47.1901C16.0171 47.1901 16.0283 47.1981 16.0419 47.1981C16.1656 47.1959 16.2871 47.1643 16.3962 47.1061C18.9646 46.5086 21.4437 45.5768 23.7697 44.3344C25.5779 43.3518 27.3257 42.2617 29.0036 41.07C29.2507 40.89 29.5059 40.7252 29.7739 40.5597C36.9267 35.9626 47.0239 36.7873 47.1247 36.8001C47.5667 36.8396 47.9572 36.5133 47.9966 36.0713C48.0361 35.6294 47.7101 35.2392 47.2681 35.1996ZM33.232 22.8483C32.7351 22.0283 32.709 21.0066 33.1632 20.1622C33.8743 18.8192 34.6719 17.5945 35.183 16.8026C35.9287 17.8835 36.6138 19.0051 37.2348 20.1622C37.6891 21.0066 37.6629 22.0283 37.166 22.8483C36.7674 23.5604 36.0151 24.0015 35.1991 24.0015C34.383 24.0015 33.6306 23.5604 33.232 22.8483ZM7.02228 22.582C6.89704 22.81 6.66222 22.9567 6.40238 22.9691C6.14244 22.9566 5.90772 22.81 5.78248 22.582C5.56173 22.2188 5.54185 21.7681 5.72971 21.3869C5.95131 20.9389 6.18884 20.5142 6.40247 20.1551C6.61601 20.5142 6.85364 20.939 7.07524 21.3877C7.26291 21.7686 7.24303 22.2191 7.02228 22.582ZM12.332 22.8811C11.928 22.2194 11.8909 21.3968 12.2336 20.7014C12.6968 19.7614 13.2063 18.8936 13.6015 18.2593C13.9967 18.8936 14.5061 19.7615 14.9693 20.7014C15.3121 21.3968 15.275 22.2194 14.8709 22.8811C14.6238 23.3535 14.1346 23.6497 13.6015 23.6497C13.0683 23.6498 12.5792 23.3535 12.332 22.8811ZM21.3479 30.5866C22.1734 29.0003 23.8118 28.0038 25.6002 28.0006C27.2271 27.999 28.7435 28.8239 29.6261 30.1907C28.3382 30.8666 27.0104 31.6377 25.6498 32.5248C24.1605 32.009 22.7208 31.3604 21.3479 30.5866ZM16.0013 41.8284C14.8725 41.8284 13.8291 41.2271 13.2632 40.2503V40.2528C12.6611 39.2421 12.6464 37.9863 13.2247 36.9619C14.0173 35.5559 14.8888 34.1957 15.8348 32.888C15.8724 32.8331 15.9346 32.8003 16.0012 32.8003C16.0677 32.8003 16.13 32.8331 16.1676 32.888C17.1136 34.195 17.985 35.5544 18.7776 36.9596C19.356 37.9841 19.3413 39.2397 18.7392 40.2504C18.1734 41.2271 17.1301 41.8284 16.0013 41.8284ZM23.014 42.926C21.0586 43.9691 18.988 44.7802 16.8443 45.3425V43.3483C18.2189 43.1064 19.4168 42.2704 20.1183 41.0638C20.6526 40.1615 20.8821 39.111 20.7726 38.0682C22.879 39.0097 25.0681 39.7541 27.3118 40.2919C25.9255 41.2432 24.4909 42.1224 23.014 42.926ZM40.7984 32.7761C40.5163 32.7761 40.2519 32.6388 40.0896 32.408C39.9649 32.1976 39.9677 31.9351 40.0968 31.7273C40.3272 31.3377 40.5768 30.9682 40.7984 30.661C41.0191 30.9682 41.2695 31.3377 41.4999 31.728C41.629 31.9356 41.6317 32.1976 41.5071 32.4079C41.3449 32.6388 41.0804 32.7761 40.7984 32.7761Z" fill="white"/>
<path d="M12.4017 12.8021H14.4423C14.6385 14.1761 15.8132 15.1979 17.2011 15.2018H24.4003C25.8841 15.2016 27.11 14.0438 27.1949 12.5624C27.2799 11.0811 26.1944 9.79074 24.7203 9.62089C24.3455 7.75248 22.7064 6.40676 20.8008 6.40282C20.4339 6.40713 20.0693 6.46263 19.7177 6.56761C19.0829 4.9059 17.4244 3.86539 15.652 4.01706C13.8796 4.16873 12.4219 5.47574 12.0786 7.22116C10.6038 7.39102 9.51816 8.68237 9.60393 10.1643C9.6897 11.6462 10.9172 12.8036 12.4017 12.8021ZM20.8007 8.00267C22.126 8.00267 23.2004 9.07711 23.2004 10.4024C23.2004 10.8442 23.5585 11.2023 24.0003 11.2023H24.4003C25.0629 11.2023 25.6001 11.7395 25.6001 12.4021C25.6018 12.7208 25.476 13.0271 25.2506 13.2524C25.0252 13.4778 24.719 13.6037 24.4003 13.602H17.2011C16.5385 13.602 16.0013 13.0648 16.0013 12.4021C16.0013 11.7395 16.5385 11.2023 17.2011 11.2023H17.6011C18.0429 11.2023 18.401 10.8442 18.401 10.4024C18.401 9.07711 19.4753 8.00267 20.8007 8.00267ZM11.5514 9.1521C11.7767 8.92675 12.083 8.80086 12.4017 8.80254H12.8017C13.2434 8.80254 13.6015 8.44437 13.6015 8.00267C13.603 6.81696 14.4704 5.81001 15.6428 5.63294C16.8152 5.45587 17.9413 6.16163 18.293 7.294C17.5648 7.88071 17.0653 8.70412 16.8812 9.62089C15.9198 9.72288 15.0834 10.3237 14.6798 11.2023H12.4017C11.739 11.2023 11.2018 10.665 11.2018 10.0024C11.2 9.68369 11.3259 9.37754 11.5514 9.1521Z" fill="white"/>
<path d="M33.1993 8.80247H40.3984C41.8822 8.80219 43.1081 7.64442 43.1931 6.16306C43.278 4.68169 42.1925 3.39138 40.7185 3.22152C40.3463 1.34992 38.7039 0.00195312 36.7958 0.00195312C34.8876 0.00195312 33.2451 1.34992 32.8731 3.22152C31.3978 3.39147 30.3118 4.68376 30.3985 6.16624C30.4851 7.64882 31.7142 8.80566 33.1993 8.80247ZM32.349 5.15255C32.5743 4.9271 32.8805 4.80121 33.1993 4.80299H33.5993C34.041 4.80299 34.3991 4.44491 34.3991 4.00312C34.3991 2.67783 35.4736 1.60339 36.7988 1.60339C38.1241 1.60339 39.1986 2.67783 39.1986 4.00312C39.1986 4.44491 39.5567 4.80299 39.9984 4.80299H40.3984C40.8271 4.80299 41.2232 5.03172 41.4375 5.40292C41.6518 5.77413 41.6518 6.23158 41.4375 6.60279C41.2232 6.97399 40.8271 7.20272 40.3984 7.20272H33.1993C32.7128 7.20422 32.2736 6.91184 32.0872 6.46255C31.9009 6.01317 32.0043 5.49573 32.349 5.15255Z" fill="white"/>
</g>
<defs>
<clipPath id="clip0_33_298">
<rect width="48" height="48" fill="white"/>
</clipPath>
</defs>
</svg>
